<svg xmlns="http://www.w3.org/2000/svg" width="17.047" height="17.398" viewBox="0 0 17.047 17.398"><defs><style>.a{fill:none;stroke:#c4c4c4;stroke-miterlimit:10;stroke-width:1.5px;}</style></defs><g transform="translate(-13.474 -967.301)"><path class="a" d="M14.389,9.478a6.2,6.2,0,0,0,.056-.779,6.2,6.2,0,0,0-.056-.779l1.677-1.312a.4.4,0,0,0,.1-.509l-1.59-2.75a.4.4,0,0,0-.485-.175l-1.979.795a5.813,5.813,0,0,0-1.343-.779l-.3-2.106A.387.387,0,0,0,10.073.75H6.893a.387.387,0,0,0-.389.334L6.2,3.19a6.1,6.1,0,0,0-1.343.779L2.879,3.174a.387.387,0,0,0-.485.175L.8,6.1a.392.392,0,0,0,.1.509L2.577,7.92a6.2,6.2,0,0,0-.056.779,6.2,6.2,0,0,0,.056.779L.9,10.789a.4.4,0,0,0-.1.509l1.59,2.75a.4.4,0,0,0,.485.175l1.979-.795a5.828,5.828,0,0,0,1.343.779l.3,2.106a.388.388,0,0,0,.389.334h3.18a.388.388,0,0,0,.389-.334l.3-2.106a6.143,6.143,0,0,0,1.343-.779l1.979.795a.39.39,0,0,0,.485-.175l1.59-2.75a.4.4,0,0,0-.1-.509Z" transform="translate(13.517 967.301)"/><path class="a" d="M8.513,11.628a2.9,2.9,0,0,1,0-5.793,3.046,3.046,0,0,1,2.047.849,2.749,2.749,0,0,1,.85,2.048,3.053,3.053,0,0,1-.749,1.943A2.758,2.758,0,0,1,8.513,11.628Z" transform="translate(13.485 967.269)"/></g></svg>