<svg xmlns="http://www.w3.org/2000/svg" width="17.001" height="14.742" viewBox="0 0 17.001 14.742"><defs><style>.a{fill:#c4c4c4;}.a,.b{stroke:#c4c4c4;stroke-linecap:round;stroke-linejoin:round;}.b{fill:none;}</style></defs><g transform="translate(-13.5 -166.757)"><path class="a" d="M495.336-90.7h-3.062V-95.28h2.1Z" transform="translate(-476.135 271.702)"/><path class="a" d="M496.771-98.271,502.357-95v-10.4l-5.586,3.274Z" transform="translate(-477.568 272.655)"/><path class="b" d="M506.776-96.965c.7-.468,1.221-2.175,1.221-4.217s-.52-3.749-1.221-4.216" transform="translate(-477.996 273.64)"/><path class="b" d="M505.075-97.564c.48-.334.835-1.553.835-3.011s-.355-2.677-.835-3.011" transform="translate(-478.328 273.033)"/><path class="a" d="M1.645,0h4.1a0,0,0,0,1,0,0V4.305a0,0,0,0,1,0,0h-4.1A1.645,1.645,0,0,1,0,2.66V1.645A1.645,1.645,0,0,1,1.645,0Z" transform="translate(14 170.305)"/></g></svg>