<svg xmlns="http://www.w3.org/2000/svg" width="12.645" height="13" viewBox="0 0 12.645 13"><defs><style>.a{fill:#617585;}</style></defs><path class="a" d="M13.424,9.137a4.482,4.482,0,0,0,0-1.274L14.8,6.791a.328.328,0,0,0,.078-.416l-1.3-2.249a.327.327,0,0,0-.4-.143l-1.618.65A4.749,4.749,0,0,0,10.46,4l-.247-1.723A.317.317,0,0,0,9.895,2h-2.6a.317.317,0,0,0-.318.273L6.729,4a4.994,4.994,0,0,0-1.1.637l-1.619-.65a.317.317,0,0,0-.4.143l-1.3,2.249a.32.32,0,0,0,.078.416L3.765,7.863A5.155,5.155,0,0,0,3.72,8.5a5.155,5.155,0,0,0,.046.637L2.394,10.209a.328.328,0,0,0-.078.416l1.3,2.249a.327.327,0,0,0,.4.143l1.619-.65a4.749,4.749,0,0,0,1.1.637l.247,1.723A.317.317,0,0,0,7.295,15h2.6a.317.317,0,0,0,.318-.273L10.46,13a4.994,4.994,0,0,0,1.1-.637l1.618.65a.317.317,0,0,0,.4-.143l1.3-2.249a.328.328,0,0,0-.078-.416Zm-4.83,1.638A2.275,2.275,0,1,1,10.87,8.5,2.277,2.277,0,0,1,8.595,10.775Z" transform="translate(-2.271 -2)"/></svg>