<svg xmlns="http://www.w3.org/2000/svg" width="18" height="18" viewBox="0 0 18 18"><defs><style>.a{fill:none;stroke:#0389ff;stroke-miterlimit:10;stroke-width:2px;}.b{fill:#0389ff;}</style></defs><g transform="translate(-13 -251)"><circle class="a" cx="8" cy="8" r="8" transform="translate(14 252)"/><path class="b" d="M415.562-61.845a2.731,2.731,0,0,1,2.73,2.73,2.73,2.73,0,0,1-2.73,2.729,2.73,2.73,0,0,1-2.73-2.73h0a2.727,2.727,0,0,1,2.722-2.727Z" transform="translate(-393.562 316.944)"/><path class="b" d="M409.606-50.177a7.392,7.392,0,0,0,5.31,2.239,7.389,7.389,0,0,0,5.31-2.24s-1.154-3.607-2.845-4.128a4.274,4.274,0,0,1-2.464.91,4.273,4.273,0,0,1-2.466-.91C410.76-53.785,409.606-50.177,409.606-50.177Z" transform="translate(-392.916 315.437)"/></g></svg>