<svg xmlns="http://www.w3.org/2000/svg" width="133" height="127" viewBox="0 0 133 127"><defs><style>.a{fill:#c4c4c4;opacity:0;}.b{fill:#281e96;}.c{fill:#6470ce;}</style></defs><rect class="a" width="133" height="127"/><g transform="translate(20.888 13.591)"><path class="b" d="M221.221,304.423c15-12.209,23.464-23.8,17.2-34.478-9.789-16.688-45.1-16.839-61.995-13.493,0,0,55.422,9.191,27.236,47.971,28.186,38.779-27.236,47.97-27.236,47.97,16.9,3.346,52.206,3.2,61.995-13.492C244.685,328.219,236.218,316.629,221.221,304.423Z" transform="translate(-149.716 -254.737)"/><path class="c" d="M183.459,304.423c-15,12.206-23.464,23.8-17.2,34.478,9.789,16.688,45.1,16.839,61.995,13.492,0,0-55.424-9.191-27.236-47.97-28.188-38.779,27.236-47.971,27.236-47.971-16.9-3.346-52.206-3.2-61.995,13.493C159.995,280.628,168.462,292.215,183.459,304.423Z" transform="translate(-164.174 -254.737)"/></g></svg>