<svg xmlns="http://www.w3.org/2000/svg" width="458" height="127" viewBox="0 0 458 127"><defs><style>.a{fill:#fff;opacity:0;}.b{fill:#282f30;}</style></defs><g transform="translate(-0.302)"><rect class="a" width="458" height="127" transform="translate(0.302)"/><g transform="translate(15.687 24.904)"><path class="b" d="M226.661,311.433V280.9h24.868v3.065l-1.746,1.746H232.111v7.833h15.053v4.811H232.111v8.282h19.418v4.792Z" transform="translate(-226.654 -235.172)"/><path class="b" d="M240.162,291.6v-4.79H256.3v4.79Z" transform="translate(-210.72 -228.201)"/><path class="b" d="M250.46,311.433V280.9h20.057a6.676,6.676,0,0,1,6.983,6.983v1.746a7.5,7.5,0,0,1-.395,2.511,4.83,4.83,0,0,1-.916,1.67,6.291,6.291,0,0,1-1.064.938,2.766,2.766,0,0,1-.948.458l-.384.085v.214c.113.028.272.074.479.138a7.93,7.93,0,0,1,1.118.532,5.609,5.609,0,0,1,1.393,1.044,5.98,5.98,0,0,1,1.088,1.768,6.566,6.566,0,0,1,.5,2.629v2.83a6.664,6.664,0,0,1-6.983,6.985Zm5.45-18.1h12.86q3.28,0,3.279-3.279v-1.085q0-3.28-3.279-3.257H255.91Zm0,13.3h13.732q3.28,0,3.279-3.279V301.4q0-3.28-3.279-3.279H255.91Z" transform="translate(-198.569 -235.172)"/><path class="b" d="M266.451,311.433V280.9h20.5a6.676,6.676,0,0,1,6.983,6.983v5.236a7.136,7.136,0,0,1-.682,3.2,5.121,5.121,0,0,1-1.637,2.023,9.736,9.736,0,0,1-1.916,1.02,7.038,7.038,0,0,1-1.62.458l-.7.044,7.2,8.729v2.832h-5l-8.729-11.328H271.9v11.328Zm5.45-16.139h13.3q3.28,0,3.279-3.257v-3.065q0-3.28-3.279-3.257H271.9Z" transform="translate(-179.699 -235.172)"/><path class="b" d="M282.354,305.126V287.69a6.662,6.662,0,0,1,6.961-6.983H304.58a6.66,6.66,0,0,1,6.983,6.983v17.436a6.659,6.659,0,0,1-6.983,6.963H289.315a6.644,6.644,0,0,1-6.961-6.963Zm8.707,2.174h11.772q3.28,0,3.279-3.259V288.776q0-3.277-3.279-3.277H291.061q-3.28,0-3.257,3.277V304.04Q287.781,307.3,291.061,307.3Z" transform="translate(-160.931 -235.404)"/><path class="b" d="M299.244,311.433V280.9h5.45v12.433h8.515l9.368-12.433h4.79v2.852l-9.582,11.753L327.814,308.6v2.832H323l-9.793-13.074h-8.515v13.074Z" transform="translate(-141.001 -235.172)"/><path class="b" d="M315.039,311.433V280.9h24.868v3.065l-1.746,1.746H320.489v7.833h15.053v4.811H320.489v8.282h19.418v4.792Z" transform="translate(-122.361 -235.172)"/><path class="b" d="M329.439,311.433V280.9h20.5a6.673,6.673,0,0,1,6.983,6.983v5.236a7.141,7.141,0,0,1-.68,3.2,5.109,5.109,0,0,1-1.639,2.023,9.749,9.749,0,0,1-1.916,1.02,7.056,7.056,0,0,1-1.618.458l-.7.044,7.2,8.729v2.832h-5l-8.729-11.328h-8.941v11.328Zm5.45-16.139h13.305q3.28,0,3.279-3.257v-3.065q0-3.28-3.279-3.257H334.889Z" transform="translate(-105.366 -235.172)"/><path class="b" d="M226.658,290.456v-2.832l12.2-27.7h6.983l12.221,27.7v2.832h-5.025l-2.832-6.747h-15.69l-2.854,6.747Zm9.815-11.559h11.772l-5.9-13.946Z" transform="translate(-226.658 -259.926)"/><path class="b" d="M242.854,290.456v-4.79h18.755q3.28,0,3.259-3.279v-.66q0-2.786-3.045-3.257l-12.433-1.958a8.269,8.269,0,0,1-4.833-2.256,6.245,6.245,0,0,1-1.7-4.515v-2.832a6.663,6.663,0,0,1,6.983-6.983h19.608v3.067l-1.746,1.744H251.561q-3.28,0-3.257,3.259v.447q0,2.786,3.043,3.257l12.433,1.979a8.284,8.284,0,0,1,4.833,2.245,6.2,6.2,0,0,1,1.7,4.5v3.043a6.66,6.66,0,0,1-6.985,6.983Z" transform="translate(-207.545 -259.926)"/><path class="b" d="M258.445,290.456v-30.53h5.45v30.53Z" transform="translate(-189.147 -259.926)"/><path class="b" d="M263.341,290.456v-2.832l12.2-27.7h6.983l12.219,27.7v2.832H289.72l-2.832-6.747H271.2l-2.854,6.747Zm9.815-11.559H284.93l-5.9-13.946Z" transform="translate(-183.369 -259.926)"/></g></g></svg>